<svg width="500" height="555" viewBox="0 0 500 555" fill="none" xmlns="http://www.w3.org/2000/svg">
<path d="M285.056 269.855C280.107 263.809 274 259.434 266.731 256.482C255.245 251.818 246.953 243.204 241.423 232.578C233.295 216.96 226.619 200.593 218.734 184.841C212.273 171.933 211.009 158.444 212.312 144.471C212.945 137.677 214.152 130.939 214.9 124.154C216.759 107.291 215.557 91.101 203.578 77.8051C212.933 67.9558 228.818 70.4184 233.971 82.197C236.23 87.3595 237.754 92.8529 239.473 98.2403C251.137 134.791 271.684 165.873 297.097 194.293C324.449 224.881 349.934 256.935 368.375 293.982C383.085 323.533 393.642 354.528 399.75 386.893C402.273 400.264 409.105 410.46 417.96 419.986C431.449 434.498 444.817 449.122 458.498 463.981C448.142 471.569 437.187 478.872 427.048 487.173C404.755 505.424 378.774 517.211 353.334 529.875C341.011 536.009 327.338 537.977 313.538 538.003C312.093 538.006 310.312 537.173 309.249 536.146C281.505 509.343 248.26 491.956 212.336 479C174.004 465.176 137.909 447.232 107.201 419.876C94.7857 408.817 81.9004 398.071 70.8725 385.715C52.7555 365.417 44.3549 340.22 39.0322 313.964C32.7909 283.176 30.839 251.909 29.0741 220.644C28.1352 204.012 27.94 187.34 27.1193 170.701C25.9321 146.631 34.5501 127.463 52.6097 111.107C78.151 87.9746 102.391 63.4032 127.1 39.3577C129.945 36.5891 132.325 33.3193 134.765 30.1619C140.041 23.3343 146.301 21.7764 156.084 25.8883C146.818 39.3826 138.398 53.1949 128.412 65.7621C117.873 79.0256 106.621 91.9341 94.292 103.52C70.0156 126.332 54.6383 153.251 48.3912 186.214C43.1623 213.804 38.5032 241.259 39.5416 269.427C39.647 272.285 39.4368 275.33 44.1874 275.839C45.0889 271.701 45.9665 267.396 46.9679 263.119C53.6423 234.618 59.4373 205.87 67.3129 177.704C74.0007 153.786 87.5398 133.305 105.251 115.715C127.196 93.9182 146.862 70.286 162.476 43.4754C165.028 39.0924 168.409 37.172 173.5 37.4683C178.716 37.7719 182.325 40.1388 184.58 44.6801C188.765 53.1104 189.411 62.1916 189.526 71.8288C187.804 72.1167 186.231 72.5125 184.638 72.6246C173.4 73.4157 165.65 79.4394 160.877 89.2017C154.378 102.494 148.985 116.364 141.923 129.335C134.134 143.641 124.53 156.949 116.53 171.15C95.1813 209.045 85.2578 249.803 87.3369 293.359C87.3751 294.158 87.5781 294.949 87.7315 295.916C92.4325 296.225 94.9071 294.134 95.9013 289.761C99.6654 273.205 103.413 256.644 107.358 240.131C115.623 205.539 131.46 174.379 150.195 144.402C157.928 132.027 164.082 118.662 170.898 105.719C172.758 102.186 174.294 98.4812 176.192 94.9703C180.902 86.2557 191.579 85.9835 196.626 94.7629C198.417 97.8782 199.285 101.98 199.248 105.618C198.961 134.052 190.636 160.227 177.195 185.153C166.297 205.363 162.143 227.641 159.105 250.215C155.598 276.28 151.415 302.254 147.573 328.274C147.166 331.034 147.078 333.841 146.757 337.635C159.31 332.447 163.141 322.416 165.633 309.787C182.11 313.79 198.629 317.425 214.926 321.871C231.529 326.4 247.219 333.335 262.011 342.195C276.683 350.984 290.338 361.23 301.197 374.432C311.8 387.322 321.229 401.177 331.173 414.608C332.006 414.201 332.838 413.794 333.671 413.387C331.655 406.334 330.407 398.942 327.477 392.292C319.024 373.108 305.471 357.583 290.875 342.769C260.389 311.825 222.552 297.55 180.291 292.92C176.815 292.539 173.329 292.256 169.851 291.895C169.551 291.864 169.276 291.585 169.054 291.458C170.523 282.075 171.877 272.703 173.602 263.4C173.802 262.318 176.1 260.796 177.353 260.862C197.974 261.952 218.629 262.787 239.183 264.686C254.243 266.077 269.168 268.932 285.011 271.022C286.131 270.781 286.394 270.653 286.64 270.63C286.624 270.736 286.338 270.574 286.338 270.574C286.338 270.574 286.727 270.65 286.425 270.569C285.768 270.278 285.412 270.066 285.056 269.855Z" fill="white"/>
</svg>
